<svg width="470" height="450" viewBox="0 0 470 450" fill="none" xmlns="http://www.w3.org/2000/svg">
<g clip-path="url(#clip0_1_29)">
<path d="M326.238 243.473L332.24 238.457C335.719 235.549 340.869 228.726 342.18 228.283C343.022 227.998 344.784 229.218 345.004 230.08C345.224 230.942 344.421 232.723 343.608 233.414L328.665 246.092L313.506 258.99C310.623 261.442 307.619 264.134 305.188 266.842L296.014 277.047C293.36 280.001 299.051 281.955 299.294 287.975C298.258 288.594 296.099 289.302 295.044 289.168C292.05 288.791 291.247 282.821 289.291 287.148C284.527 297.689 284.292 289.876 279.665 295.174L263.468 313.72L255.673 322.995C251.974 327.395 248.479 331.732 244.989 336.362C244.128 337.503 241.821 343.348 237.608 341.473C234.106 339.915 237.85 336.86 232.959 334.919C231.508 334.342 230.276 332.309 229.093 331.142C226.921 328.998 224.994 326.988 223.022 324.746L214.366 314.891C207.565 307.147 207.057 301.102 201.923 297.554L196.986 305.449C194.145 309.99 188.379 320.33 190.112 325.536C191.55 329.851 195.285 332.136 198.489 334.736C201.173 336.912 219.12 352.374 221.096 347.056C222.655 342.86 215.998 343.453 215.261 338.748L220.126 333.795C224.529 334.893 226.511 334.86 229.873 338.883C231.357 340.66 228.572 342.991 227.013 344.302C225.941 345.204 226.695 348.558 227.914 349.151L231.973 351.138C230.983 353.377 229.548 353.416 227.347 353.183L228.336 359.003C230.656 372.651 235.039 376.611 221.836 391.765C217.977 396.194 215.097 400.449 212.541 405.652L209.737 411.363C206.025 418.923 202.804 433.762 206.47 442.194C207.617 444.827 208.181 446.849 208.521 450C204.426 449.223 199.941 441.332 201.14 437.899L199.328 436.001C198.961 435.617 199.977 434.444 200.229 433.84C198.329 431.473 198.827 428.575 199.79 425.671C203.037 415.907 199.39 420.868 204.989 408.698C205.985 406.531 206.732 404.37 208.082 402.384L214.202 393.391L222.927 382.545C223.631 374.598 226.475 376.228 224.414 369.651C223.779 367.622 223.579 365.153 223.153 363.058L221.964 357.229C221.397 354.452 219.998 353.593 217.59 352.347C207.339 347.033 198.758 339.997 189.342 332.89C187.268 331.326 186.19 328.824 184.962 326.533C184.188 325.09 184.401 324.031 184.601 322.418C184.913 319.894 185.067 317.415 186.256 315.196L189.188 309.724L192.913 302.872L197.932 293.312C198.195 292.814 199.341 291.892 199.19 291.381C199.007 290.768 198.466 289.463 198.116 288.761L194.387 281.365C193.31 279.228 189.65 271.917 187.753 270.71C175.097 272.667 163.826 277.529 152.854 283.647L149.457 285.542C140.925 290.299 130.461 290.368 121.756 285.008C117.618 282.46 113.162 279.11 110.237 275.084L105.814 268.992C104.474 267.146 102.344 265.035 101.312 263.173C99.9033 260.629 99.035 258.17 97.4395 255.754C96.0831 253.701 92.0926 245.154 90.9853 242.233L88.8688 236.64L86.8539 231.306C85.9365 228.883 84.8193 226.621 84.3901 224.058L83.2369 217.169C81.7888 208.527 82.2081 200.83 82.5259 191.951C82.6701 187.912 82.4277 184.086 82.3621 179.578C82.3359 177.792 72.7856 173.162 71.1213 170.392L65.971 160.963C65.0209 159.222 64.2444 156.524 63.291 154.383C61.9117 151.285 61.8494 138.201 65.2731 136.709C72.0255 133.765 78.0702 134.676 84.3836 138.319C81.566 129.457 82.3654 123.985 84.1772 115.819C85.1142 111.593 84.246 108.852 85.3271 102.554C80.9468 100.177 75.9669 100.515 71.0754 100.862C62.6423 101.459 54.6646 99.9804 46.5263 97.951L37.0874 95.5971C32.8152 94.5316 28.995 93.5677 24.7424 92.194L21.879 93.8857C19.0221 93.9054 16.6533 91.6793 14.1732 90.3351C5.6025 85.6862 3.49586 84.8601 -0.00646973 75.1132C2.64731 73.1199 5.23228 70.5233 8.15143 69.3758C18.4487 65.3335 28.8869 69.0316 41.1172 66.9268C46.4444 66.0088 51.5128 65.7367 56.9318 65.5302L62.1148 65.3335L75.3182 64.7368L76.514 62.4451L85.0552 63.1336L95.0151 63.9696L93.7111 59.3371C93.5014 58.5962 94.4876 56.4914 95.2641 56.4882C99.1268 56.4816 97.433 59.7765 101.722 61.737L106.325 57.6881C104.372 55.5013 103.497 54.3473 102.485 52.931C101.866 52.0655 98.4224 52.5704 98.6124 50.741C99.1956 45.0856 103.245 40.84 107.799 38.1385L120.21 30.7882C123.479 28.8539 126.778 26.8081 130.34 25.2705C135.975 22.8379 142.396 22.2773 147.747 19.6381C154.437 16.3367 161.143 15.6023 168.836 14.8187L178.688 13.8188C194.247 12.2386 206.438 13.1762 221.947 15.1073C228.959 15.9793 235.534 16.7432 242.539 19.5889C243.282 19.0709 243.338 17.4251 242.873 16.7432C242.283 15.8777 240.842 15.6416 239.672 15.2449L228.851 11.5829C226.803 10.8911 210.458 8.46506 204.711 7.17334C197.022 5.44559 183.733 4.43582 175.726 5.09151L164.927 5.9767L156.93 6.99958C152.209 7.60282 147.914 8.45195 143.294 9.9207C125.206 15.6646 126.851 15.34 110.509 25.5721C107.308 27.5753 104.66 31.8078 101.823 34.7879C96.8137 40.0466 92.7741 45.6757 90.5462 52.7081C89.7436 55.2456 88.5248 57.4881 85.5172 58.0946C84.5605 52.7966 86.1986 47.974 88.8229 43.4923L91.5324 38.8696C94.1075 34.4732 97.2888 30.9456 100.657 27.0179C103.632 23.5493 106.184 20.5233 110.889 18.5792C122.162 13.927 121.779 9.97644 131.47 7.71757L146.98 4.10141C148.877 3.65882 150.522 3.08509 152.612 3.03263C155.131 2.97034 157.874 1.9868 160.386 1.69501L166.346 1.00326C172.387 0.301662 178.376 -0.12454 184.356 0.0295487C186.282 0.0787258 188.933 0.878673 191.085 0.822939C204.701 0.462307 202.762 3.02935 210.546 3.99978L217.338 4.84563C224.513 5.74065 222.35 6.357 228.621 6.36028C231.648 6.36028 234.948 8.48473 237.837 9.51417C244.875 12.0156 251.018 15.2023 257.046 19.448C265.489 25.3984 274.427 30.6472 280.966 38.7877L287.057 46.3708L290.746 50.6721C292.322 52.5114 293.845 54.1998 294.848 56.5045C295.516 58.0389 297.233 59.7109 297.931 61.0583L303.959 72.6773C305.04 74.7624 305.633 77.9851 306.134 80.2833L305.269 81.0767C305.086 81.2472 305.558 81.3128 306.396 81.5357C309.522 84.1093 310.99 95.9315 309.214 99.3247C310.934 103.37 310.282 106.986 309.624 111.206C309.296 113.307 309.388 116.025 308.814 118.323C305.843 130.234 304.264 122.887 305.394 134.847C305.414 135.906 303.117 136.821 302.121 136.644C301.125 136.467 299.077 134.952 299.087 133.929C299.104 131.768 299.592 129.851 299.988 127.91C300.247 125.992 292.541 124.628 291.434 125.067C290.631 125.385 289.76 126.936 289.478 127.913L287.653 134.24L284.354 135.565C280.753 140.384 284.108 149.987 284.17 156.57C284.233 163.153 284.511 169.297 283.669 175.582L282.67 183.027L281.258 197.604C281.064 199.59 279.862 202.957 279.036 204.872L275.678 212.658C274.499 215.396 273.653 218.304 274.784 221.507C282.889 217.871 288.708 212.504 295.162 207.17C299.379 203.685 302.58 203.361 306.19 199.882C308.906 197.263 312.864 196.413 316.196 194.807C319.187 193.364 322.585 193.42 325.916 193.178C332.236 192.722 336.833 195.036 340.987 199.525C345.715 204.636 351.101 209.108 354.859 215.137C356.52 217.805 358.476 220.831 361.009 222.563C361.841 223.133 364.095 221.864 364.796 221.225C367.057 219.169 369.723 217.756 372.086 215.989C374.733 214.012 377.029 212.225 380.047 210.698C387.012 207.18 400.573 200.298 407.771 203.134C414.209 205.669 419.123 210.154 420.666 216.747L427.009 243.791C429.473 254.295 422.694 262.648 431.468 268.674L435.704 271.586C442.954 276.566 445.307 277.225 452.158 284.073C454.877 286.791 458.291 289.378 459.483 293.171C461.783 300.498 462.271 294.069 464.637 302.413L469.997 307.6C458.514 313.786 443.295 316.376 430.593 315.697C425.921 315.448 421.21 315.711 416.656 315.156L406.768 313.95C363.001 308.606 378.478 317.927 358.8 319.632L331.329 322.012L318.06 323.225L309.07 323.68C295.555 324.366 300.65 323.989 286.657 322.448L281.12 327.903C280.923 331.044 279.852 332.513 277.742 334.667C267.589 345.03 277.3 331.372 266.318 348.515C265.011 350.554 264.159 353.121 262.963 355.233C262.357 356.301 262.331 356.744 262.308 358.075L262.092 370.127L263.359 382.673C264.421 393.187 266.675 403.131 271.452 412.707C272.844 415.497 275.295 417.74 278.106 419.73C279.787 420.92 282.254 418.36 284.773 417.612C285.235 417.474 286.156 419.048 285.982 419.566C285.137 422.094 281.815 424.31 278.764 423.589C271.625 421.904 266.891 416.474 264.015 409.944C262.865 407.334 262.249 404.705 261.469 401.892C258.465 391.047 256.827 380.5 257.046 369.245C257.095 366.681 255.804 363.222 257.652 361.078C257.963 360.717 259.67 359.895 259.33 359.57L257.488 357.809C256.358 355.364 263.166 346.41 261.708 345.882L259.638 345.135C258.707 344.8 256.935 343.755 256.827 343.443L258.999 339.322C261.387 338.755 263.982 337.689 265.967 335.935L270.544 331.89C274.918 328.024 279.213 323.818 283.187 319.759L280.311 315.93L286.477 316.337L295.994 308.226L303.795 301.02L315.436 290.374C317.041 288.909 318.66 287.483 320.003 285.834L325.956 278.526C326.529 277.821 328.095 276.759 328.96 276.713C329.825 276.667 331.411 277.772 332.2 278.782C325.605 286.526 318.126 292.676 311.049 299.659L305.774 304.865C300.722 309.849 296.233 312.612 290.53 318.52C290.421 321.618 313.44 319.93 314.299 319.845L333.838 317.845L349.044 316.14C354.404 315.54 360.665 316.084 365.674 313.757C373.96 309.908 382.275 308.006 391.468 309.209L404.655 310.934L410.005 311.665C411.732 311.901 414.517 312.921 416.187 312.894L447.06 312.448C450.234 312.403 457.052 309.498 460.096 307.354C462.284 305.813 459.719 302.105 458.71 300.453C456.653 297.079 454.625 293.676 452.21 290.722L448.318 285.965C445.313 282.29 441.86 279.952 437.771 277.385C436.107 276.339 434.518 274.526 432.507 273.723C430.58 272.953 428.765 270.854 427.196 269.963C422.226 267.146 420.086 263.232 421.174 257.449C422.455 250.626 420.761 243.64 419.428 236.844L416.735 223.136C415.758 218.16 413.661 212.986 410.444 209.534C405.982 204.744 400.648 204.882 395.255 207.131C388.84 209.806 383.264 212.15 377.636 216.343L368.96 222.808C367.659 223.779 365.602 225.12 364.246 225.792C360.966 227.418 358.486 224.271 356.389 222.949C354.332 221.651 353.552 220.723 352.251 218.874C349.686 215.225 347.078 211.442 343.988 208.321L340.286 204.583C337.252 201.521 333.55 197.941 329.527 196.125C320.275 191.951 302.091 206.436 294.812 212.18C288.803 216.92 283.06 221.113 276.769 225.457C274.41 227.087 271.314 230.074 270.993 232.841C270.168 239.994 281.444 260.101 284.658 264.507L288.213 269.382C288.901 270.33 290.061 273.228 291.26 273.231C294.572 273.241 297.203 269.192 300.686 265.72L304.585 261.835C307.537 258.895 310.335 256.337 313.601 253.744L318.037 250.22L326.247 243.46L326.238 243.473ZM142.233 59.2355C145.827 57.9438 148.474 56.4914 151.423 55.0259C158.116 51.6983 164.806 48.9936 171.634 46.3249L179.323 43.3185C186.017 40.699 192.687 38.4434 199.616 36.1911C205.045 34.4273 209.753 31.9291 214.736 28.9883C215.608 28.4736 217.715 28.2736 218.484 28.749C219.254 29.2244 220.188 31.3685 219.736 31.8537C217.115 32.8208 214.864 33.7519 212.705 34.8404L205.632 38.4106C202.342 40.0695 199.233 41.5088 195.662 43.0398C194.24 43.6496 185.191 47.7805 188.471 50.2623L195.947 47.1871L205.854 43.2366C207.26 42.6759 208.197 42.3415 209.53 41.6629L226.174 33.1946L232.232 30.0899C232.848 29.7751 233.821 28.7555 233.811 28.1195C233.775 25.7262 231.812 27.972 227.101 24.6378L225.03 23.1723C224.608 22.874 224.745 21.9298 224.663 20.9659C213.865 18.0808 203.043 18.2743 191.924 17.7366C186.112 17.4546 180.594 18.825 174.874 19.1529C166.058 19.6545 157.775 20.3463 149.237 23.2641L139.972 26.4278C138.314 26.995 123.057 31.4308 125.72 34.447C128.728 33.9454 131.47 33.5126 134.13 32.7717L143.871 30.0636L155.888 27.0278C159.81 26.0377 163.253 24.9066 167.348 24.9099L172.079 22.2838L179.864 23.6247C181.541 23.9132 183.884 25.7328 185.745 27.2835L179.356 28.1293C179.385 29.5522 179.369 30.9029 179.992 31.2177C182.023 32.2438 188.356 30.5194 190.485 29.7883C192.622 29.0539 193.932 28.3556 196.062 28.5031C199.485 28.7424 201.169 27.2015 202.277 29.4145C202.598 30.0538 202.103 31.8996 201.353 32.0963L190.508 34.9453C174.37 39.1876 165.14 40.4597 150.918 50.4885C147.455 52.931 143.219 54.5178 142.229 59.2421L142.233 59.2355ZM297.478 122.064L301.014 123.054C301.944 121.871 303.438 119.641 303.54 118.304L304.663 103.692C305.092 98.0985 305.459 91.7547 303.618 86.5747L300.896 78.9031C293.855 59.0749 293.301 61.7894 280.976 45.9413C274.394 37.4796 266.59 30.1882 256.623 25.8508C254.212 26.2344 251.565 26.4967 249.288 26.5786L244.701 26.7426L250.831 30.7947C261.888 38.109 259.163 40.2105 269.729 49.4689C271.399 52.5704 272.481 56.9865 273.958 60.3502L282.755 80.3653L284.599 84.4207C285.5 86.4042 286.077 88.3254 286.401 90.5679L288.452 104.849C289.111 109.435 289.065 114.038 289.321 118.927C291.584 120.369 294.671 121.274 297.482 122.061L297.478 122.064ZM169.229 35.8403C170.562 35.7846 172.158 35.5879 173.164 35.4731C172.741 32.0668 174.838 33.2602 176.663 30.8964C176.935 30.5456 175.431 29.2506 174.995 29.3325C172.499 29.7948 166.605 31.0439 164.564 32.4078C163.807 32.9159 163.564 35.2961 163.804 36.0633L169.226 35.8403H169.229ZM217.38 46.6921C220.856 45.5512 224.152 44.4234 227.294 42.9677L244.645 34.9387C244.488 33.7618 243.531 31.7258 242.676 31.4439C236.995 29.5752 236.435 32.8766 229.172 37.1812L218.73 43.3677C217.23 48.151 213.387 45.22 212.797 48.6329C214.399 48.4788 215.873 47.6625 217.387 46.6921H217.38ZM219.916 62.196L228.195 57.5569C235.754 53.3244 243.079 49.3476 251.005 45.6495C252.649 44.8824 252.122 41.8924 250.546 41.0006C249.062 40.1613 246.641 39.5811 245.176 39.8466L231.999 50.3181C228.49 53.1048 215.588 59.6093 219.916 62.1927V62.196ZM105.073 50.0427C107.141 50.2918 108.133 50.6918 109.827 51.7508C111.593 50.7607 114.338 49.1968 116.245 47.81L122.349 43.371C122.247 42.3284 120.649 40.9023 119.741 41.2498C118.575 41.6957 117.192 42.3219 116.953 44.1349C116.517 47.4428 108.015 42.6759 105.07 50.0427H105.073ZM252.223 93.1775L252.803 98.587C256.528 97.6461 256.024 95.5479 256.152 93.2431L256.764 82.0996C256.882 79.9292 258.176 76.9983 258.802 74.5066C259.159 73.0871 261.063 70.9036 262.504 70.2545C265.718 68.8087 265.863 75.8082 268.572 74.8607C269.381 74.5788 270.603 72.5625 270.358 71.5954C268.126 62.7763 265.872 53.7441 258.235 47.6625C256.214 48.528 254.451 50.482 252.646 51.9835L248.682 55.2784L239.534 62.5697C238.217 63.6188 235.498 64.4909 237.664 66.7957L245.137 64.0877C247.253 63.3205 250.815 62.4517 252.702 62.0714C253.259 61.9599 255.28 62.9762 255.11 63.5172C254.209 66.3957 253.174 65.8908 249.887 71.5724C247.781 75.2148 250.471 78.7195 251.057 83.5552L252.223 93.1808V93.1775ZM140.513 60.1928C138.563 60.0748 136.054 59.324 136.525 58.7569L143.615 50.259C135.654 49.8886 129.711 60.6157 123.823 55.7111C121.533 53.8064 124.311 49.8984 127.041 49.3148C125.583 44.7447 114.296 54.7079 112.337 56.3242C109.228 58.8913 106.285 60.5731 105.126 65.5794L113.877 66.6121C122.143 67.5858 125.075 71.3987 134.327 63.9303C135.988 62.5894 138.973 61.2583 140.509 60.1928H140.513ZM134.373 67.753C133.829 68.0513 133.167 69.6053 133.567 69.943C133.865 70.1954 134.756 70.7921 135.212 70.9233L141.571 72.7527L148.674 74.687C152.874 75.8311 156.943 76.9589 160.927 78.3162L165.471 79.8669L175.087 83.1848C177.656 84.0699 179.929 85.5584 182.79 85.9387C185.391 86.2829 187.714 87.2533 190.125 88.2008L200.911 92.4333C204.482 93.8332 208.669 95.62 211.414 98.4034C211.683 98.6755 213.085 99.4034 213.151 99.046C213.803 95.5872 211.647 92.7513 209.082 90.7384L204.564 90.499C204.072 90.4728 202.798 89.3286 202.978 88.8959C204.22 85.9682 205.173 87.2271 205.402 85.1814C205.455 84.7158 204.862 83.5159 204.491 83.1257L198.077 76.4475C195.223 78.0769 192.261 78.2802 190.256 75.5558L195.652 71.0282C199.669 69.9397 202.224 68.6087 204.875 65.5859C206.064 64.2286 208.996 63.209 210.29 61.9862C217.557 55.121 217.108 56.8521 222.675 52.1802L226.875 48.6559C225.338 48.9018 223.019 48.8329 221.925 49.2099C216.915 50.9279 210.962 53.4228 206.175 56.0193C201.163 58.7405 196.533 60.6682 191.314 62.9074C184.398 65.8744 176.925 74.0182 171.516 73.0084C170.929 72.9002 170.166 70.9495 170.612 70.5889C174.314 67.5792 170.022 72.3625 178.147 66.4678L188.684 58.8191C191.498 56.7767 197.611 52.8458 197.736 50.9901L194.05 51.295L186.216 54.5637L177.272 58.2159C174.523 59.3371 171.473 61.0059 168.708 62.4353L151.409 71.379C150.122 72.0445 147.114 71.7429 146.741 70.402C146.138 68.2382 148.674 67.7595 149.961 67.0973C154.106 64.9663 158.211 62.7697 161.861 60.2125L171.283 53.6064C172.45 52.79 173.518 51.8393 175.09 50.5115C171.975 49.4657 169.724 50.4099 167.07 51.5934L153.051 57.8454C150.318 59.065 147.747 60.4289 145.017 61.9239L134.373 67.7464V67.753ZM210.074 82.0242L217.737 75.3197L223.399 70.5397C227.098 67.4186 230.544 63.8385 234.846 61.5665C235.763 61.0813 236.625 60.5961 236.894 60.0256C237.162 59.4552 236.432 57.934 235.803 57.9274C235.298 57.9241 233.86 58.2094 233.411 58.4716L224.395 63.7991C218.35 67.3727 212.679 70.3397 206.13 72.9592C205.104 73.369 203.093 75.4836 203.872 76.2147L210.071 82.0275L210.074 82.0242ZM77.012 80.1194L89.3406 84.6306L92.4825 77.7589C93.508 75.5197 96.1192 73.3625 95.2542 70.52C94.9233 69.4348 92.5579 68.6218 91.4505 68.7464C85.7039 69.4021 80.4062 69.6578 74.5613 69.9791L64.1002 70.5561C60.0049 70.7823 56.2503 71.4806 52.1877 72.5592L61.9313 75.6672C68.6313 77.8048 69.5552 77.3917 77.012 80.1194ZM197.176 106.878L204.822 105.114C205.53 104.951 206.513 103.764 206.732 103.19C207.65 100.777 203.912 98.7182 201.713 97.8953L187.629 92.6268L162.706 83.8864C160.023 82.9454 157.359 82.0439 154.669 81.2964L141.823 77.7294L131.516 74.9984C128.96 74.3198 126.562 73.7428 124.344 75.6771C122.516 77.2737 119.03 77.8474 117.733 75.7525L119.793 73.9395C120.219 73.5657 118.506 72.1953 117.838 72.0838L105.093 69.9824C103.979 69.7988 101.862 69.6971 101.292 70.3823C100.824 70.9495 93.6489 83.4831 93.8291 86.096C96.9841 87.7025 99.3856 88.309 102.583 89.0926C104.7 89.6106 107.16 90.981 109.323 91.7153C118.172 94.7184 124.829 98.0559 133.77 100.708L140.27 102.636L154.673 106.603L167.352 109.167C169.046 106.439 175.257 106.039 175.382 106.255C175.657 106.737 176.103 108.065 176.417 109.029C182.482 111.203 191.652 108.154 197.176 106.878ZM223.445 88.6139C224.228 84.7355 227.648 82.8831 231.069 83.4667L235.813 79.0375C238.552 76.4836 241.726 74.4411 243.056 70.7462C240.924 67.753 234.115 72.3756 231.508 74.0575C225.568 77.89 219.91 81.2242 214.383 85.837C212.466 87.4369 220.555 99.0952 222.137 99.6722C222.616 95.4167 222.711 92.2301 223.441 88.6074L223.445 88.6139ZM41.9527 80.5849C47.2045 82.7356 52.3253 83.0307 57.9277 83.2471L67.2061 83.6044C67.4715 83.6142 68.2119 82.5881 68.0154 82.4865L67.0849 81.9947C60.2703 80.9161 57.0038 79.1391 50.1302 77.4835C46.5394 76.618 42.7357 76.2016 39.3808 74.9197C34.1748 72.9297 29.706 73.5592 24.595 75.4181L18.5274 77.6245C17.6657 79.667 16.6435 80.8341 14.5205 81.198C13.2919 81.4078 10.9821 81.4373 10.494 80.562C10.0517 79.7686 9.31123 78.1162 8.72478 76.854C8.4594 76.5491 6.99819 77.0245 6.89335 77.6277C6.15619 81.798 14.0323 85.483 17.5641 87.2271C19.9132 88.391 20.6733 88.2533 22.6751 87.2271L29.5422 83.7159C27.0326 82.5455 24.0806 81.4013 23.717 78.7982C23.0978 74.3985 38.8107 79.2899 41.9559 80.5784L41.9527 80.5849ZM273.804 94.0037C273.496 90.7089 273.696 87.9254 271.167 86.2206C270.669 89.6925 270.531 91.8858 270.757 94.7086L271.56 104.823C271.537 104.524 275.58 113.009 273.807 94.0004L273.804 94.0037ZM78.6305 95.5184L86.2117 95.7807C86.8703 94.5873 87.7909 91.4957 87.5976 90.0368C87.4698 89.0663 84.9537 88.2762 84.0134 88.0894C83.0731 87.9025 81.6807 89.9056 80.7306 90.3613L71.2327 90.981C71.0033 91.3416 70.6822 92.5022 71.0066 92.6136L72.7397 93.2103C74.332 93.7578 76.9628 95.4626 78.6272 95.5217L78.6305 95.5184ZM65.3452 94.961C59.8476 91.0596 58.0555 90.6597 52.1025 92.9382C51.7192 93.2759 66.1282 97.1183 65.3452 94.961ZM98.3634 94.1381L94.6481 91.6268C94.1075 91.2596 92.3449 91.4531 92.1385 92.0137C91.9321 92.5743 91.6307 93.9185 92.014 94.3775C92.7512 95.2659 96.7023 94.9119 98.3634 94.1381ZM184.359 142.263C181.433 146.289 170.71 142.269 167.283 140.184L161.74 136.814C161.356 136.581 159.725 136.46 159.767 136.86C160.026 139.194 165.583 143.669 167.961 145.836L179.739 147.879C183.52 148.535 187.16 150.544 190.636 152.249C198.185 155.95 193.179 166.907 196.425 168.081C197.094 168.323 198.473 167.628 199.253 167.612L206.205 167.484L215.356 167.412L222.531 167.356L222.144 162.616C221.607 156.062 219.664 150.554 217.082 144.607C214.042 137.591 214.864 131.942 209.95 128.028C208.626 126.972 207.253 124.425 206.909 122.674C206.742 121.835 207.846 119.913 208.659 120.002C212.309 120.395 213.318 121.513 213.74 120.73C214.605 119.133 212.489 118.137 209.593 114.153C208.416 112.534 206.529 111.268 204.976 112.186L196.881 116.96C195.046 118.041 188.916 125.234 183.844 121.841C183.281 121.464 182.901 119.294 183.497 118.966L189.394 115.727C189.876 115.366 188.326 113.72 187.651 113.812C178.694 115.019 172.138 114.806 162.958 113.275L156.792 112.248C154.008 111.786 151.354 110.832 148.526 109.986L137.987 106.839C132.066 105.072 126.546 103.282 120.737 101.141L112.12 97.9641L104.703 95.2332C102.993 94.6037 100.906 94.0398 99.7722 93.9414C100.087 95.6659 100.234 97.1904 100.015 98.4526L90.0122 101.397L88.8524 108.659L87.2339 124.212C86.9948 126.5 85.9693 129.444 88.6722 130.887L95.4082 129.483C96.1683 129.572 97.3576 131.339 97.4035 132.159L91.9649 133.25C90.8575 133.804 88.9048 135.781 88.0366 136.926C87.3552 137.827 89.1768 140.099 90.2612 140.329C91.5553 140.601 92.8331 139.729 94.1206 139.066L103.209 134.381C103.52 134.221 112.632 132.408 111.78 134.217C111.583 134.634 110.82 135.404 110.341 135.565C107.878 136.388 99.3266 140.129 97.9473 142.463C109.732 147.905 102.393 146.036 107.983 153.416C113.254 151.541 118.283 152.206 123.401 152.728L125.075 150.489C125.452 149.984 127.617 150.253 127.778 150.875L128.924 155.387L135.159 151.718C136.303 151.046 138.914 150.407 140.404 150.075L150.181 147.908C147.861 145.315 145.761 144.082 142.776 143.561L134.094 142.04C130.877 141.476 133.043 134.749 148.828 141.525L157.775 145.368C156.724 142.096 154.813 140.906 152.546 139.145C146.416 134.381 141.541 138.991 139.857 136.43C139.5 135.886 139.49 134.637 139.906 134.132C140.237 133.729 141.515 133.25 142.128 133.24L150.767 133.086L156.393 135.07C158.001 132.985 160.897 130.51 163.351 132.011L170.857 136.604C179.461 141.869 174.661 138.25 184.372 142.263H184.359ZM246.631 95.6561C246.506 95.102 244.898 94.5381 244.773 94.9676C244.216 96.8888 244.115 103.724 242.483 111.009C242.214 112.203 243.001 114.504 243.957 114.783C244.914 115.061 247.237 114.678 247.987 113.937C249.003 112.93 247.358 98.928 246.628 95.6561H246.631ZM279.662 95.3151C279.606 95.6397 279.433 97.2232 279.734 97.0953L281.205 96.4593C281.503 96.3314 281.048 95.7708 280.815 95.5413C280.661 95.3872 279.698 95.0987 279.662 95.3151ZM229.349 98.7313L227.609 98.7673C227.301 98.7739 226.292 104.478 228.831 104.882C230.331 103.964 229.778 98.7247 229.349 98.7346V98.7313ZM282.696 104.983C282.666 102.4 281.893 100.882 279.682 100.866L280.082 106.324C280.131 106.99 282.1 108.013 282.336 107.436C282.526 106.973 282.706 105.836 282.696 104.983ZM214.34 105.459C214.14 106.265 214.32 107.983 214.792 107.832L216.928 107.147C217.41 106.993 216.938 105.806 216.502 105.56C216.067 105.314 214.461 104.977 214.34 105.459ZM283.597 116.586C284.504 115.445 283.597 112.563 282.542 113.134C281.549 113.671 280.825 114.983 281.091 115.625C281.392 116.353 283.145 117.153 283.594 116.586H283.597ZM223.487 125.684C224.48 122.458 223.651 116.065 220.866 116.953L218.416 117.733L221.227 124.267C221.544 125.005 223.176 126.339 223.487 125.684ZM238.306 121.625C238.067 119.625 236.396 118.461 234.712 118.992C232.238 119.773 233.228 124.828 234.817 125.815C235.518 126.251 237.595 125.533 238.204 124.975C238.725 124.497 238.489 123.169 238.303 121.625H238.306ZM274.738 128.664C274.292 127.195 273.126 125.471 272.438 124.09C271.481 127.159 271.652 129.693 272.042 132.841L273.355 143.532C273.411 143.994 274.8 144.925 275.18 144.774C277.306 143.928 275.783 132.1 274.738 128.667V128.664ZM243.718 156.8L243.246 139.309C243.066 132.667 244.626 126.198 241.697 125.071C241.091 124.838 239.79 126.031 239.59 126.775C237.706 133.85 238.296 141.125 238.915 148.341L240.055 161.648L240.986 169.287C241.091 170.143 241.143 171.195 241.372 171.684C241.602 172.172 243.161 172.041 243.604 171.733C245.858 170.163 243.774 158.914 243.718 156.796V156.8ZM258.399 139.129C260.801 138.64 259.631 135.916 258.042 134.614C257.459 135.627 257.348 138.729 258.399 139.129ZM223.091 145.417C225.623 142.299 224.709 137.571 222.429 135.696C221.905 135.263 219.969 135.24 219.762 135.794C219.598 136.234 219.549 137.427 219.739 137.857L223.091 145.417ZM82.6439 172.238L82.5816 164.573C82.562 162.239 82.6046 159.885 82.8175 157.449L83.8889 145.22C81.6151 141.378 72.2712 137.207 67.9466 140.856C65.5549 152.062 67.7893 153.521 71.8912 162.012C74.3713 167.146 76.1765 169.491 82.6439 172.241V172.238ZM261.128 175.172C261.017 173.5 261.037 172.441 261.099 170.595C261.24 166.402 260.342 162.209 260.083 157.934C259.772 152.734 259.818 147.049 259.795 141.738C259.795 141.201 259.212 140.135 258.907 139.745C258.681 139.456 257.354 140.253 257.302 140.689L255.706 154.501C255.175 159.108 254.147 163.868 254.943 168.071C260.83 169.304 257.511 173.517 261.128 175.172ZM95.5294 164.652C97.2495 163.111 98.4126 161.37 97.849 160.212C95.2084 160.714 88.4003 161.662 88.7377 158.337C89.0523 155.219 96.8793 155.413 100.074 155.901C100.778 156.009 102.406 155.459 102.521 154.849C103.815 147.997 93.5932 145 88.0137 144.938L87.247 157.006L86.9129 166.72C86.808 169.769 86.582 173.52 87.7024 176.139C92.1057 177.608 96.4402 176.884 100.002 174.323L102.249 170.038L97.5378 168.478C96.2633 168.055 94.5203 165.55 95.5294 164.645V164.652ZM273.745 146.695L274.168 148.735C274.43 149.997 275.596 147.108 275.377 147.122C275.066 147.141 273.683 146.384 273.748 146.695H273.745ZM174.451 186.663C185.909 180.965 185.247 176.864 189.352 166.851C190.266 164.625 190.174 159.295 187.874 157.383C184.536 154.61 178.93 151.646 174.753 151.662C154.964 151.747 156.134 150.416 137.151 156.101C135.326 156.649 132.617 158.537 130.834 159.173L132.627 164.963C134.261 170.241 138.026 174.546 140.29 179.598C142.757 185.106 146.112 190.397 152.166 192.345C158.247 194.302 168.741 189.509 174.451 186.67V186.663ZM287.211 278.71L276.989 262.294L273.673 256.491L267.864 247.39L264.749 251.633C261.587 252.02 258.396 250.43 256.866 247.83C257 246.305 257.118 244.197 257.351 242.719L259.051 231.903C259.005 232.195 261.747 223.851 256.994 223.228C256.332 223.14 254.73 224.146 254.477 224.838C252.489 230.247 246.772 236.244 240.321 232.893C241.395 230.985 243.371 231.205 244.511 230.46C251.241 226.07 253.413 218.238 254.494 210.878C255.048 207.095 255.627 203.574 255.778 199.921C256.053 193.292 257.809 179.47 252.666 175.631C252.292 175.457 250.923 175.91 250.906 176.339L250.831 178.549C250.779 180.087 247.653 180.749 245.992 180.824L244.357 184.716C243.725 184.87 241.91 184.558 241.618 183.893L240.462 181.247C233.116 177.949 237.52 173.936 233.798 173.858L233.195 179.582C234.407 182.916 235.547 186.647 233.83 189.732L229.683 197.194C228.752 198.869 228.762 200.931 228.077 203.2L223.91 202.226L225.076 194.899C223.835 193.23 218.828 193.335 219.51 190.617C220.516 186.604 222.593 174.418 221.017 172.464C219.202 170.212 202.486 171.808 198.237 172.313L192.805 172.959C189.647 184.04 179.883 189.784 169.809 193.525C164.881 195.354 159.695 198.095 154.168 197.702C149.775 197.39 144.664 194.437 141.987 191.06C140.87 189.653 139.241 187.837 138.57 186.548L126.464 163.324L123.276 161.386C123.243 160.026 123.263 159.16 123.102 158.521C122.968 157.99 121.363 157.055 120.763 157.062L113.988 157.111C112.599 157.121 110.833 157.19 110.296 158.104C109.791 158.963 110.659 161.714 111.341 161.212C112.425 160.327 113.346 159.511 114.067 159.491C114.787 159.472 115.849 161.235 115.721 161.944L114.728 167.389L119.597 168.651C115.587 176.71 114.004 184.175 112.845 192.801C112.753 193.482 110.063 200.298 112.504 200.944C113.162 201.118 114.483 200.738 115.318 200.305L128.436 193.535C129.255 193.112 130.857 195.105 130.762 195.925C130.432 198.738 120.96 203.318 117.969 204.895C118.968 207.311 118.752 209.468 116.878 211.34C113.936 214.281 106.937 211.176 106.276 210.547C105.614 209.917 105.45 207.711 105.466 206.642L105.62 197.4L107.144 190.194C108.572 183.431 107.953 176.884 109.096 169.392C105.715 171.51 104.972 175.644 102.41 178.028C98.2782 181.877 92.8593 182.018 87.4174 182.139C87.1094 183.929 86.6245 186.46 86.7556 188.168C87.2896 194.981 85.5499 198.092 87.4993 212.334L88.7672 221.608C88.9704 223.097 89.6125 225.857 90.1695 227.215L97.2167 244.391C99.995 251.164 104.067 257.423 107.891 263.606C112.291 270.723 120.226 279.257 128.079 282.047C135.988 284.857 143.101 283.66 149.834 279.198C156.429 274.828 164.456 272.149 172.024 269.32C176.571 267.622 190.597 262.121 193.568 266.897C196.006 270.815 197.667 275.284 199.869 279.31L202.595 284.29L208.194 294.577C212.8 303.039 219.071 312.34 225.882 319.163L232.133 325.425L237.736 330.919C238.214 331.388 239.865 332.188 240.501 331.982C242.214 331.428 245.992 326.936 247.47 325.153L257.538 313.006L262.95 307.39L270.833 298.22L274.027 294.237C276.73 290.866 279.2 287.703 282.044 284.509L287.211 278.703V278.71ZM234.482 166.36C235.914 163.34 235.488 160.249 233.716 157.783C231.829 160.429 232.363 163.97 234.482 166.36ZM269.987 193.296L270.97 187.211C269.85 187.096 268.569 187.024 268.307 187.588C266.462 191.535 262.452 193.876 265.112 196.427C266.475 197.731 269.689 195.168 269.991 193.296H269.987ZM262.855 210.894L264.29 205.082C264.431 204.511 264.074 203.026 263.589 203.226C263.225 203.377 262.055 204.056 261.96 204.436L260.44 210.508C260.329 210.947 261.027 212.363 261.476 212.389C261.924 212.416 262.73 211.396 262.852 210.894H262.855Z" fill="black"/>
<path d="M140.529 232.172C141.328 233.542 134.229 238.342 130.815 239.574C125.851 241.368 123.053 235.762 119.689 239.178C117.438 241.46 114.293 241.204 112.392 238.689L108.729 233.847C108.199 233.145 109.827 231.185 110.666 230.929C114.04 229.896 114.165 234.204 117.552 235.647C118.368 234.014 118.804 232.821 119.531 232.3C120.458 231.634 122.87 231.473 123.699 232.054L128.872 235.693L137.141 232.031L139.084 230.778C139.48 230.523 140.277 231.739 140.529 232.172Z" fill="black"/>
<path d="M183.821 203.138C184.129 204.61 182.498 205.934 181.593 206.049C180.535 206.18 177.878 205.718 177.518 204.849C178.186 203.501 179.14 202.482 179.916 202.043C180.748 201.57 183.585 202.029 183.818 203.138H183.821Z" fill="black"/>
<path d="M205.717 148.164C205.651 149.564 204.161 151.282 203.07 151.59C201.759 151.961 199.859 151.256 198.899 150.02C200.18 148.135 203.214 147.112 205.717 148.167V148.164Z" fill="black"/>
<path d="M168.842 178.126C167.437 178.346 164.354 177.169 162.968 176.49C161.805 173.913 161.503 170.91 161.602 167.737C154.043 163.599 146.6 169.881 143.117 167.651C142.554 167.291 142.403 165.206 142.855 164.711C144.926 162.458 148.559 162.54 152.468 162.363L158.401 162.094C164.577 161.816 170.415 162.501 176.338 164.209C177.249 164.471 178.298 166.93 177.518 167.474C172.685 170.845 174.589 177.224 168.836 178.119L168.842 178.126Z" fill="black"/>
</g>
<defs>
<clipPath id="clip0_1_29">
<rect width="470" height="450" fill="white"/>
</clipPath>
</defs>
</svg>
